<svg xmlns="http://www.w3.org/2000/svg" xmlns:xlink="http://www.w3.org/1999/xlink" data-name="Layer 1" preserveAspectRatio="xMidYMid meet" version="1.0" viewBox="4.0 4.0 40.0 40.0" zoomAndPan="magnify" style="fill: rgb(0, 0, 0);" original_string_length="1464"><g id="__id7184_suqgsio6wu"><path d="M34.5,7V21a3.019,3.019,0,0,1-.68,1.9A2.989,2.989,0,0,1,31.5,24h-15a3,3,0,0,1-3-3V7a2.987,2.987,0,0,1,2.78-2.99A1.62,1.62,0,0,1,16.5,4h15A3,3,0,0,1,34.5,7Z" style="fill: rgb(199, 228, 255);"/></g><g id="__id7185_suqgsio6wu"><path d="M34.5,7V21a3.019,3.019,0,0,1-.68,1.9A15.735,15.735,0,0,1,32,23,16,16,0,0,1,16,7a16.382,16.382,0,0,1,.28-2.99A1.62,1.62,0,0,1,16.5,4h15A3,3,0,0,1,34.5,7Z" style="fill: rgb(255, 245, 245);"/></g><g id="__id7186_suqgsio6wu"><circle cx="24" cy="14" r="3" style="fill: rgb(46, 155, 255);"/></g><g id="__id7187_suqgsio6wu"><rect height="20" rx="3" width="20" x="4" y="24" style="fill: rgb(46, 155, 255);"/></g><g id="__id7188_suqgsio6wu"><rect height="20" rx="2" width="20" x="24" y="24" style="fill: rgb(204, 202, 234);"/></g><g id="__id7189_suqgsio6wu"><circle cx="34" cy="34" r="2" style="fill: rgb(159, 149, 175);"/></g><g id="__id7190_suqgsio6wu"><circle cx="30" cy="30" r="2" style="fill: rgb(159, 149, 175);"/></g><g id="__id7191_suqgsio6wu"><circle cx="38" cy="38" r="2" style="fill: rgb(159, 149, 175);"/></g><g id="__id7192_suqgsio6wu"><circle cx="14" cy="34" r="2" style="fill: rgb(255, 245, 245);"/></g><g id="__id7193_suqgsio6wu"><circle cx="10" cy="38" r="2" style="fill: rgb(255, 245, 245);"/></g><g id="__id7194_suqgsio6wu"><circle cx="10" cy="30" r="2" style="fill: rgb(255, 245, 245);"/></g><g id="__id7195_suqgsio6wu"><circle cx="18" cy="38" r="2" style="fill: rgb(255, 245, 245);"/></g><g id="__id7196_suqgsio6wu"><circle cx="18" cy="30" r="2" style="fill: rgb(255, 245, 245);"/></g></svg>